<mxfile host="app.diagrams.net" modified="2023-11-08T00:16:26.000Z" agent="Mozilla/5.0 (Macintosh; Intel Mac OS X 10_15_7) AppleWebKit/537.36 (KHTML, like Gecko) Chrome/119.0.0.0 Safari/537.36" version="22.0.8" etag="jjbB_qso9p8e_zG8FmZX" type="github">
  <diagram name="Page-1" id="4qeSnBqQ6mbpvQl1gq7o">
    <mxGraphModel>
      <root>
        <mxCell id="0" />
        <mxCell id="1" parent="0" />
      </root>
    </mxGraphModel>
  </diagram>
</mxfile>
